<?xml version="1.0" standalone="no"?>
<svg viewBox="0 0 200 200" xmlns="http://www.w3.org/2000/svg">
  <path fill="#5F2B9C" d="M38.8,-54.1C52.5,-51.6,67.3,-44.6,65.3,-34.2C63.3,-23.7,44.5,-10,42.5,6.4C40.6,22.8,55.5,41.9,55,54.2C54.5,66.5,38.6,72,22.7,76C6.9,80,-9,82.5,-23.5,78.7C-37.9,75,-50.8,65.1,-56,52.3C-61.1,39.5,-58.5,23.8,-53.7,11.9C-48.9,0,-41.9,-8,-38.1,-17.8C-34.2,-27.6,-33.5,-39.3,-27.7,-45.4C-21.8,-51.5,-10.9,-51.9,0.8,-53.2C12.6,-54.5,25.2,-56.6,38.8,-54.1Z" transform="translate(100 100)" />
</svg>
