<svg id="Camada_1" data-name="Camada 1" xmlns="http://www.w3.org/2000/svg" viewBox="0 0 1440 256"><defs><style>.cls-1{fill:#fff;}</style></defs><path class="cls-1" d="M1440,64l-21.8,5.3C1396.4,75,1353,85,1309,128c-43.5,43-87,117-131,112-43.5-5-87-91-131-106.7-43.4-16.3-87,37.7-131,37.4-43.3.3-87-53.7-131-48C741.8,128,698,192,655,229.3,610.9,267,567,277,524,250.7,480,224,436,160,393,144c-43.9-16-88,16-131,37.3C218.2,203,175,213,131,208c-43.7-5-87-27-109-37.3L0,160V320H1440Z" transform="translate(0 -64)"/></svg>